# xmcd
#
# Track frame offsets:
#	225
#	17118
#	38953
#	57980
#	75423
#	92651
#	111281
#	131787
#	153229
#	174973
#	194810
#	216704
#	237681
#	253470
#	271457
#	290873
#	307498
#
# Disc length: 4355 seconds
#
# Revision: 0
# Processed by: cddbd v1.5.2PL0 Copyright (c) Steve Scherf et al.
# Submitted via: EasyCDDAExtractor 12.0.0.1
#
DISCID=16110011
DTITLE=Various Artist - KUSCHEL ROCK 12
DYEAR=1900
DGENRE=
TTITLE0=SIMPLY RED - SAY YOU LOVE ME
TTITLE1=PRINCE - UNTIL URE IN MY ARMS AGAIN
TTITLE2=MADONNA - THE POWER OF GOODBYE
TTITLE3=BOYZ II MEN - CAN'T LET HER GO
TTITLE4=LIONEL RICHIE - THERE'S A PLACE
TTITLE5=GLORIA ESTEFAN - DON'T RELEASE ME
TTITLE6=LIGHTHOUSE FAMILY - QUESTION OF FAITH
TTITLE7=DES'REE - GOD ONLY KNOWS
TTITLE8=JOE COCKER - TONIGHT
TTITLE9=LENNY KRAVITZ - IF YOU CAN'T SAY NO
TTITLE10=EROS RAMAZZOTTI and TINA TURNER - COSE DELLA VITA (CAN'T STOP THINKING 
TTITLE10=OF YOU)
TTITLE11=NANA - REMEMBER THE TIME
TTITLE12=ROBYN - SHOW ME LOVE
TTITLE13=PAPA BEAR - HONEY LUV
TTITLE14=THE CORRS - WHAT CAN I DO
TTITLE15=RICHAR MARX and DONNA LEWIS - AT THE BEGINNING
TTITLE16=ROD STEWART - OH LA LA
EXTD=
EXTT0=
EXTT1=
EXTT2=
EXTT3=
EXTT4=
EXTT5=
EXTT6=
EXTT7=
EXTT8=
EXTT9=
EXTT10=
EXTT11=
EXTT12=
EXTT13=
EXTT14=
EXTT15=
EXTT16=
PLAYORDER=
